<?xml version="1.0" standalone="no"?>
<!DOCTYPE svg PUBLIC "-//W3C//DTD SVG 20010904//EN"
 "http://www.w3.org/TR/2001/REC-SVG-20010904/DTD/svg10.dtd">
<svg version="1.0" xmlns="http://www.w3.org/2000/svg"
 width="1280.000000pt" height="1096.000000pt" viewBox="0 0 1280.000000 1096.000000"
 preserveAspectRatio="xMidYMid meet">

<g transform="translate(0.000000,1096.000000) scale(0.100000,-0.100000)"
fill="#000000" stroke="none">
<path d="M3576 6478 c5 -7 23 -34 41 -59 43 -60 153 -291 188 -393 47 -139 66
-256 72 -453 3 -99 3 -192 -1 -206 -6 -24 -8 -25 -148 -31 -435 -21 -762 -64
-1095 -146 -735 -181 -1272 -523 -1552 -988 -267 -444 -229 -967 92 -1281 128
-126 277 -202 472 -242 95 -19 313 -15 426 9 337 70 657 291 1062 730 175 189
247 275 378 448 263 349 468 748 560 1087 l24 87 110 0 c141 0 377 -15 627
-40 245 -25 275 -25 312 -1 87 58 88 190 1 247 -29 19 -147 36 -410 58 -154
14 -510 36 -569 36 -18 0 -18 7 -12 118 7 125 -5 314 -29 452 -22 122 -100
369 -153 483 l-45 97 -179 0 c-141 0 -178 -3 -172 -12z m234 -1453 c0 -8 -16
-62 -35 -119 -142 -419 -377 -771 -848 -1267 -351 -371 -537 -520 -762 -610
-376 -150 -764 -46 -900 242 -70 150 -84 373 -35 549 28 101 117 279 182 365
351 463 1083 764 2028 835 321 23 370 24 370 5z"/>
<path d="M11586 6463 c-26 -127 -103 -1061 -142 -1723 -38 -655 -30 -919 36
-1091 60 -160 188 -255 342 -253 306 2 648 541 877 1378 50 181 51 208 12 247
-39 38 -72 37 -116 -3 -29 -28 -45 -63 -99 -213 -133 -375 -275 -691 -383
-854 -90 -135 -222 -251 -286 -251 -23 0 -55 46 -75 109 -15 51 -17 118 -17
716 1 647 6 831 41 1290 16 215 51 603 59 648 l5 27 -124 0 -124 0 -6 -27z"/>
<path d="M5595 6371 c-58 -35 -95 -100 -95 -164 0 -46 39 -118 79 -144 111
-74 259 39 237 180 -19 117 -133 183 -221 128z"/>
<path d="M10394 5970 c-188 -39 -384 -246 -559 -591 -37 -72 -69 -129 -72
-126 -2 3 7 138 22 301 30 337 30 341 -41 365 -38 13 -44 13 -85 -7 -24 -12
-50 -31 -58 -43 -27 -45 -160 -1215 -236 -2079 -56 -649 -117 -1701 -121
-2100 -1 -168 -6 -326 -10 -352 -9 -62 21 -112 83 -140 50 -22 88 -18 141 14
67 41 66 29 67 578 1 434 5 536 28 830 14 184 36 466 47 625 13 166 27 305 35
325 8 20 16 98 19 185 20 489 122 940 318 1400 111 261 213 423 336 537 68 63
118 84 157 66 60 -27 81 -155 71 -437 -7 -233 -11 -261 -35 -261 -32 0 -163
-50 -238 -90 -185 -100 -330 -255 -407 -434 -41 -99 -49 -229 -16 -299 64
-135 248 -196 402 -133 71 29 169 99 228 162 122 130 228 341 270 535 l13 56
101 6 c118 7 207 32 291 82 78 47 109 77 156 149 65 99 63 163 -8 192 -69 29
-105 11 -166 -85 -37 -59 -101 -82 -288 -106 l-46 -6 5 173 c5 183 -8 343 -34
438 -55 192 -208 304 -370 270z m86 -1148 c0 -26 -56 -165 -97 -243 -87 -165
-189 -269 -264 -269 -79 0 -107 38 -88 116 24 95 167 274 270 339 75 48 179
81 179 57z"/>
<path d="M5509 5716 c-37 -21 -44 -47 -78 -266 -66 -428 -86 -736 -57 -880 24
-116 73 -206 149 -275 178 -161 416 -131 629 79 149 147 364 477 478 736 44
100 51 137 29 151 -23 14 -65 10 -82 -8 -8 -10 -59 -94 -112 -187 -127 -222
-182 -302 -274 -399 -158 -166 -337 -248 -444 -203 -46 19 -101 86 -121 149
-39 115 -31 439 19 797 32 226 32 260 1 289 -31 29 -100 37 -137 17z"/>
<path d="M7503 5711 c-89 -41 -192 -167 -253 -308 -67 -159 -100 -322 -145
-713 -14 -123 -31 -245 -36 -271 -12 -57 -31 -85 -49 -74 -10 6 -12 56 -7 239
6 250 24 459 63 741 14 99 28 198 31 220 4 34 1 46 -21 72 -51 60 -130 66
-180 14 -22 -23 -31 -51 -56 -177 -139 -711 -122 -1192 48 -1346 95 -86 242
-47 307 81 36 71 42 105 85 431 60 454 94 639 141 766 40 109 93 153 120 102
13 -24 13 -191 0 -548 -11 -317 3 -419 70 -517 32 -46 98 -83 149 -83 80 0
174 159 285 480 130 377 184 510 210 510 23 0 22 -79 -1 -355 -37 -446 -1
-594 160 -666 36 -16 71 -22 130 -23 71 -1 89 3 141 28 102 50 202 165 445
509 107 152 208 322 216 363 8 44 -14 88 -47 92 -35 4 -64 -28 -150 -166 -320
-514 -482 -689 -588 -632 -28 15 -51 83 -51 153 0 34 5 166 12 292 17 338 -4
504 -75 591 -50 60 -126 80 -186 49 -42 -21 -126 -118 -167 -191 -20 -35 -85
-189 -146 -341 -129 -326 -135 -340 -151 -324 -9 9 -11 56 -7 164 22 665 -23
858 -201 857 -31 0 -72 -8 -96 -19z"/>
</g>
</svg>
